<?xml version="1.0" standalone="no"?>
<!DOCTYPE svg PUBLIC "-//W3C//DTD SVG 20010904//EN"
 "http://www.w3.org/TR/2001/REC-SVG-20010904/DTD/svg10.dtd">
<svg version="1.0" xmlns="http://www.w3.org/2000/svg"
 width="901.000000pt" height="980.000000pt" viewBox="0 0 901.000000 980.000000"
 preserveAspectRatio="xMidYMid meet">

<g transform="translate(0.000000,980.000000) scale(0.100000,-0.100000)"
fill="#000000" stroke="none">
<path d="M4255 7919 c-591 -48 -1162 -275 -1638 -651 -132 -104 -371 -344
-477 -478 -346 -436 -564 -952 -634 -1500 -33 -252 -28 -690 7 -712 18 -11 29
-10 21 4 -4 7 -3 8 4 4 7 -4 12 -14 12 -22 0 -8 5 -14 11 -14 5 0 7 5 3 11 -3
6 8 3 25 -5 17 -9 31 -19 31 -22 0 -2 -10 1 -22 7 -46 24 -9 -2 72 -51 89 -53
110 -62 70 -29 l-25 21 32 -18 c18 -10 30 -21 27 -25 -2 -5 4 -13 15 -18 25
-14 34 -14 26 -1 -3 6 1 7 9 4 9 -3 14 -11 13 -17 -1 -7 6 -11 15 -11 10 1 16
-2 13 -6 -3 -4 2 -11 11 -14 8 -3 12 -2 9 4 -3 5 1 7 9 4 9 -3 14 -11 13 -17
-1 -7 6 -11 15 -11 10 1 16 -2 13 -6 -3 -4 2 -11 11 -14 9 -4 13 -2 8 5 -4 8
0 7 15 0 22 -12 30 -27 9 -16 -7 4 -4 -1 7 -9 11 -9 25 -14 32 -12 7 3 12 0
10 -6 -1 -6 4 -13 12 -16 8 -3 11 0 7 7 -4 7 -1 9 8 5 8 -3 12 -12 9 -21 -5
-12 -1 -14 17 -8 14 4 20 3 16 -3 -8 -13 42 -45 60 -38 10 4 12 2 8 -6 -5 -8
-2 -9 9 -5 10 4 16 2 14 -5 -1 -6 4 -13 12 -16 9 -3 11 0 6 9 -5 8 -4 11 1 6
5 -5 9 -14 9 -20 0 -5 6 -12 14 -15 8 -3 11 0 7 7 -5 7 -1 9 8 5 9 -3 14 -10
11 -15 -3 -4 9 -15 27 -24 l33 -16 -25 20 c-14 11 -21 21 -17 21 4 0 23 -16
43 -35 19 -19 40 -35 46 -35 7 0 3 7 -8 16 -18 15 -18 15 2 5 12 -6 24 -18 28
-27 3 -9 13 -14 21 -10 8 3 14 0 12 -6 -1 -6 4 -13 12 -16 9 -3 11 0 6 8 -6 9
-3 9 14 1 11 -7 21 -14 21 -17 0 -3 -4 -2 -10 1 -5 3 -10 4 -10 1 0 -3 10 -10
21 -17 15 -7 19 -8 15 0 -4 7 -1 9 8 5 9 -3 14 -11 13 -16 -1 -6 4 -13 12 -16
9 -3 11 0 6 9 -5 8 -4 11 1 6 5 -5 9 -14 9 -20 0 -5 6 -12 14 -15 9 -3 11 0 6
8 -4 7 5 5 24 -4 17 -9 31 -19 31 -22 0 -2 -9 0 -20 6 -11 6 -20 8 -20 6 0 -3
14 -13 31 -22 17 -8 28 -11 25 -5 -4 7 -1 8 8 5 9 -3 13 -11 9 -17 -4 -6 0 -8
11 -4 10 4 15 3 11 -3 -7 -11 52 -43 66 -35 5 4 8 1 7 -6 -2 -6 3 -14 11 -17
9 -3 11 0 7 9 -4 8 1 3 12 -10 12 -15 24 -21 32 -16 8 5 11 4 6 -3 -3 -6 2
-16 13 -21 29 -16 38 -13 15 4 -16 13 -17 14 -1 9 10 -4 27 -23 38 -43 21 -38
21 -36 -17 69 -52 146 -54 183 -54 999 0 822 3 874 56 1029 120 349 417 609
776 677 68 13 206 15 873 15 667 0 805 -2 873 -15 425 -81 751 -422 817 -855
22 -140 22 -1521 0 -1663 -63 -418 -358 -737 -788 -849 -79 -21 -108 -22 -782
-28 -385 -3 -682 -7 -660 -9 22 -2 46 -3 54 -2 8 2 10 -2 5 -10 -5 -9 -2 -10
9 -6 10 4 16 2 14 -5 -1 -6 4 -13 12 -16 9 -3 11 0 7 9 -4 8 1 3 12 -10 11
-14 24 -21 31 -17 7 4 10 2 9 -5 -2 -6 3 -14 11 -17 9 -3 11 0 7 9 -4 8 0 5 9
-6 9 -11 23 -19 32 -17 8 2 12 -1 9 -7 -4 -5 2 -15 13 -20 29 -16 38 -13 15 5
-18 14 -18 15 4 4 12 -6 22 -17 22 -25 0 -8 5 -15 11 -15 5 0 7 5 3 11 -3 6 8
3 25 -5 35 -19 43 -33 9 -16 -21 10 -21 9 2 -9 27 -22 45 -28 34 -10 -4 7 2 7
17 -1 32 -17 39 -25 14 -17 -20 7 -20 7 0 -8 11 -9 25 -13 33 -10 7 2 11 1 8
-4 -3 -5 1 -12 10 -15 8 -3 12 -2 9 4 -3 5 1 7 9 4 9 -3 14 -11 13 -16 -1 -6
4 -13 12 -16 9 -3 11 0 6 9 -5 8 -4 11 1 6 5 -5 9 -14 9 -19 0 -6 6 -13 14
-16 8 -3 11 0 7 7 -5 7 -1 9 8 5 9 -3 14 -10 11 -15 -7 -11 73 -52 86 -44 5 4
8 1 7 -6 -2 -6 3 -14 11 -17 9 -3 11 0 6 8 -5 9 -4 11 3 6 7 -4 12 -14 12 -23
0 -10 6 -14 20 -10 10 3 19 2 18 -2 -2 -19 3 -24 12 -11 8 13 10 12 10 -2 0
-10 5 -18 11 -18 5 0 7 6 3 13 -4 7 -3 9 2 4 5 -5 9 -14 9 -19 0 -6 6 -13 14
-16 8 -3 11 0 7 7 -4 7 -1 9 8 5 9 -3 14 -11 13 -16 -1 -6 4 -13 12 -16 9 -3
11 0 6 8 -5 9 -4 11 4 6 6 -4 9 -11 6 -16 -3 -5 17 -21 46 -35 28 -15 48 -22
44 -16 -3 7 0 8 9 5 9 -3 13 -11 9 -17 -4 -6 0 -8 10 -4 10 4 16 2 14 -6 -1
-7 6 -11 15 -11 10 1 16 -2 13 -6 -3 -4 2 -11 11 -14 8 -3 12 -2 9 4 -3 5 1 7
9 4 9 -3 14 -11 13 -17 -1 -7 6 -11 15 -11 10 1 16 -2 13 -6 -3 -4 2 -11 11
-14 9 -4 13 -2 8 5 -4 8 0 7 15 0 11 -7 21 -14 21 -17 0 -3 -4 -2 -10 1 -5 3
-10 4 -10 1 0 -3 10 -10 21 -17 15 -7 19 -8 15 0 -4 7 -1 9 8 5 9 -3 14 -11
13 -16 -1 -6 4 -13 12 -16 9 -3 11 0 6 8 -5 7 5 5 23 -5 17 -10 29 -21 27 -24
-1 -3 8 -14 21 -24 27 -20 33 -12 7 10 -16 12 -15 12 9 2 15 -7 26 -17 25 -23
-1 -6 6 -10 15 -10 10 1 16 -3 15 -8 -1 -6 4 -13 12 -16 8 -3 11 0 7 7 -4 7
-1 9 8 5 9 -3 14 -11 13 -17 -1 -7 6 -11 15 -11 10 1 15 -2 13 -7 -3 -4 14
-18 37 -31 60 -32 80 -40 73 -28 -3 5 1 7 9 4 9 -3 14 -11 13 -17 -1 -7 7 -10
18 -9 11 2 17 0 12 -4 -9 -9 43 -45 55 -38 11 7 109 -47 103 -56 -3 -4 6 -15
20 -24 35 -23 45 -19 15 5 l-25 21 32 -18 c18 -10 30 -21 28 -25 -3 -4 7 -15
22 -24 25 -17 26 -17 20 1 -6 16 -5 17 6 4 6 -8 17 -16 24 -17 13 -3 191 88
288 147 899 547 1445 1523 1445 2580 0 692 -228 1346 -660 1890 -106 134 -345
374 -477 478 -611 483 -1368 714 -2138 651z m-2545 -3435 c0 -2 -13 2 -30 11
-16 9 -30 18 -30 21 0 2 14 -2 30 -11 17 -9 30 -18 30 -21z m2850 -1610 c0 -2
-9 0 -20 6 -11 6 -20 13 -20 16 0 2 9 0 20 -6 11 -6 20 -13 20 -16z m300 -170
c0 -2 -13 2 -30 11 -16 9 -30 18 -30 21 0 2 14 -2 30 -11 17 -9 30 -18 30 -21z
m530 -300 c0 -2 -9 0 -20 6 -11 6 -20 13 -20 16 0 2 9 0 20 -6 11 -6 20 -13
20 -16z m160 -90 c0 -2 -9 0 -20 6 -11 6 -20 13 -20 16 0 2 9 0 20 -6 11 -6
20 -13 20 -16z"/>
<path d="M3711 6279 c-146 -25 -269 -88 -382 -199 -82 -81 -134 -164 -178
-283 l-26 -72 -3 -780 c-3 -886 -4 -871 73 -1031 80 -166 231 -298 410 -360
l80 -28 395 -7 c592 -10 1127 -10 1203 1 267 39 478 216 576 483 l26 72 0 825
0 825 -26 72 c-44 119 -96 202 -178 283 -116 114 -235 174 -391 199 -80 13
-1500 13 -1579 0z m1787 -308 c68 -35 105 -97 104 -177 -2 -195 -259 -265
-362 -99 -28 45 -36 111 -20 160 15 46 65 104 105 121 45 20 129 17 173 -5z
m-754 -266 c290 -84 511 -309 587 -600 30 -112 30 -298 0 -410 -45 -175 -164
-354 -304 -460 -390 -293 -934 -203 -1202 199 -311 468 -92 1092 446 1265 146
48 322 50 473 6z"/>
<path d="M4393 5426 c-190 -46 -353 -210 -398 -397 -80 -343 177 -669 528
-669 245 0 464 177 522 421 78 334 -186 662 -530 658 -38 0 -94 -6 -122 -13z"/>
<path d="M5140 2530 c0 -5 5 -10 11 -10 5 0 7 5 4 10 -3 6 -8 10 -11 10 -2 0
-4 -4 -4 -10z"/>
<path d="M5600 2271 c24 -20 40 -26 40 -16 0 2 -15 12 -32 20 l-33 16 25 -20z"/>
</g>
</svg>
